<?xml version="1.0" standalone="no"?>
<svg viewBox="0 0 200 200" xmlns="http://www.w3.org/2000/svg">
  <path fill="#0099FF" d="M36.2,-67C42.8,-58.9,41.2,-40.9,43.7,-28.1C46.1,-15.3,52.6,-7.6,54.6,1.1C56.6,9.9,54.1,19.8,51.3,32.1C48.5,44.4,45.5,59,36.9,69C28.3,79.1,14.2,84.6,3.9,77.9C-6.5,71.2,-12.9,52.4,-24,43.8C-35.1,35.2,-50.8,36.8,-61.5,31.2C-72.2,25.6,-77.9,12.8,-78.1,-0.1C-78.3,-13.1,-73.1,-26.1,-64.3,-34.9C-55.4,-43.7,-43,-48.3,-31.7,-53.7C-20.3,-59.1,-10.2,-65.3,2.3,-69.4C14.8,-73.4,29.6,-75.1,36.2,-67Z" transform="translate(100 100)" />
</svg>
